<?xml version="1.0" encoding="utf-8"?>
<!-- Generator: Adobe Illustrator 22.1.0, SVG Export Plug-In . SVG Version: 6.00 Build 0)  -->
<svg version="1.1" id="Layer_1" xmlns="http://www.w3.org/2000/svg" xmlns:xlink="http://www.w3.org/1999/xlink" x="0px" y="0px"
	 viewBox="0 0 117.4 98.6" style="enable-background:new 0 0 117.4 98.6;" xml:space="preserve">
<style type="text/css">
	.st0{fill:#28283C;}
</style>
<g>
	<path class="st0" d="M5.4,72.9H2.6v4.7H0V63.1h5.7c3.4,0,5.5,1.9,5.5,4.9C11.2,71.2,8.6,72.9,5.4,72.9z M5.5,65.4h-3v5.2h3
		c1.9,0,3.1-1.1,3.1-2.6C8.7,66.3,7.4,65.4,5.5,65.4z"/>
	<path class="st0" d="M23.6,65.3h-8.2v3.8h7.3v2.3h-7.3v3.9h8.3v2.3H12.8V63.1h10.8V65.3z"/>
	<path class="st0" d="M36.9,63.1h2.5v14.5h-2.1l-8-10.3v10.3h-2.5V63.1h2.4l7.8,10V63.1z"/>
	<path class="st0" d="M48.5,77.6h-5.4V63.1h5.4c4.6,0,7.7,3.1,7.7,7.2C56.2,74.4,53.1,77.6,48.5,77.6z M48.5,65.4h-2.9v9.9h2.9
		c3,0,5-2.1,5-4.9C53.6,67.5,51.6,65.4,48.5,65.4z"/>
	<path class="st0" d="M71.5,71.3c0,4.3-2.4,6.5-6.2,6.5c-3.8,0-6.2-2.2-6.2-6.4v-8.4h2.6v8.3c0,2.7,1.4,4.1,3.7,4.1
		c2.3,0,3.7-1.4,3.7-4v-8.4h2.6V71.3z"/>
	<path class="st0" d="M75,63.1h2.6v12.2h7.6v2.3H75V63.1z"/>
	<path class="st0" d="M99.7,71.3c0,4.3-2.4,6.5-6.2,6.5c-3.8,0-6.2-2.2-6.2-6.4v-8.4h2.6v8.3c0,2.7,1.4,4.1,3.7,4.1
		c2.3,0,3.7-1.4,3.7-4v-8.4h2.6V71.3z"/>
	<path class="st0" d="M110.3,74L110.3,74l-4.6-6.8v10.4h-2.5V63.1h2.7l4.4,6.9l4.4-6.9h2.7v14.5h-2.6V67.2L110.3,74z"/>
</g>
<g>
	<path class="st0" d="M13,96.7h-1l-1-2.2H6.3l-1,2.2h-1l3.9-8.5h0.9L13,96.7z M8.6,89.3l-1.9,4.3h3.9L8.6,89.3z"/>
	<path class="st0" d="M14.8,96.7h-0.9v-6.2h0.9v1.6c0.5-1,1.4-1.8,2.5-1.7v1h-0.1c-1.4,0-2.5,1-2.5,2.9V96.7z"/>
	<path class="st0" d="M19.4,94.9c0,0.8,0.4,1,1.1,1c0.3,0,0.6-0.1,0.9-0.2v0.8c-0.3,0.2-0.7,0.3-1.1,0.3c-1,0-1.8-0.5-1.8-1.8v-3.8
		h-0.9v-0.8h0.9v-1.9h0.9v1.9h2v0.8h-2V94.9z"/>
	<path class="st0" d="M22.4,89.1v-1h1.1v1H22.4z M22.5,96.7v-6.2h0.9v6.2H22.5z"/>
	<path class="st0" d="M28.2,90.5v0.8h-2v5.4h-0.9v-5.4h-0.9v-0.8h0.9v-0.5c0-1.4,0.7-2.1,1.9-2.1c0.4,0,0.7,0,1,0.2v0.8
		c-0.3-0.1-0.6-0.2-0.9-0.2c-0.7,0-1.1,0.4-1.1,1.3v0.5H28.2z"/>
	<path class="st0" d="M28.8,89.1v-1h1.1v1H28.8z M28.9,96.7v-6.2h0.9v6.2H28.9z"/>
	<path class="st0" d="M34.2,96.8c-1.8,0-3.2-1.5-3.2-3.2c0-1.8,1.4-3.3,3.2-3.3c1.2,0,1.9,0.5,2.5,1.1l-0.6,0.7
		c-0.5-0.5-1.1-0.9-1.9-0.9c-1.3,0-2.2,1.1-2.2,2.4c0,1.4,1,2.4,2.3,2.4c0.8,0,1.4-0.4,1.9-0.9l0.6,0.6
		C36.1,96.3,35.4,96.8,34.2,96.8z"/>
	<path class="st0" d="M37.7,89.1v-1h1.1v1H37.7z M37.8,96.7v-6.2h0.9v6.2H37.8z"/>
	<path class="st0" d="M40.6,91.6l-0.3-0.8c0.7-0.3,1.4-0.5,2.3-0.5c1.7,0,2.7,0.9,2.7,2.5v3.8h-0.9v-0.9c-0.4,0.6-1.2,1.1-2.3,1.1
		c-1.2,0-2.3-0.7-2.3-2c0-1.3,1.1-2,2.7-2c0.8,0,1.4,0.1,1.9,0.3v-0.2c0-1.1-0.7-1.7-1.9-1.7C41.8,91.2,41.2,91.4,40.6,91.6z
		 M40.7,94.8c0,0.8,0.7,1.3,1.6,1.3c1.1,0,2.1-0.7,2.1-1.7v-0.6c-0.5-0.1-1.1-0.3-1.8-0.3C41.4,93.5,40.7,94,40.7,94.8z"/>
	<path class="st0" d="M46.7,96.7v-8.8h0.9v8.8H46.7z"/>
	<path class="st0" d="M53.4,88.2v8.4h-1v-8.4H53.4z"/>
	<path class="st0" d="M56.1,96.7h-0.9v-6.2h0.9v1.1c0.4-0.7,1.1-1.2,2.1-1.2c1.5,0,2.4,1,2.4,2.5v3.9h-0.9V93c0-1.2-0.6-1.9-1.7-1.9
		c-1.1,0-1.9,0.8-1.9,2V96.7z"/>
	<path class="st0" d="M63.2,94.9c0,0.8,0.4,1,1.1,1c0.3,0,0.6-0.1,0.9-0.2v0.8c-0.3,0.2-0.7,0.3-1.1,0.3c-1,0-1.8-0.5-1.8-1.8v-3.8
		h-0.9v-0.8h0.9v-1.9h0.9v1.9h2v0.8h-2V94.9z"/>
	<path class="st0" d="M68.8,96c0.9,0,1.5-0.3,2-0.9l0.6,0.5c-0.6,0.7-1.4,1.2-2.6,1.2c-1.7,0-3.1-1.3-3.1-3.3c0-1.8,1.3-3.3,3-3.3
		c1.8,0,2.9,1.5,2.9,3.3c0,0.1,0,0.2,0,0.3h-4.9C66.7,95.3,67.7,96,68.8,96z M70.6,93.2c-0.1-1.1-0.7-2.1-2-2.1
		c-1.1,0-1.9,0.9-2,2.1H70.6z"/>
	<path class="st0" d="M72.7,96.7v-8.8h0.9v8.8H72.7z"/>
	<path class="st0" d="M75.3,96.7v-8.8h0.9v8.8H75.3z"/>
	<path class="st0" d="M77.8,89.1v-1h1.1v1H77.8z M77.8,96.7v-6.2h0.9v6.2H77.8z"/>
	<path class="st0" d="M83.1,98.6c-1,0-2-0.3-2.8-0.9l0.4-0.7c0.7,0.5,1.5,0.8,2.4,0.8c1.4,0,2.3-0.8,2.3-2.2v-0.7
		c-0.5,0.7-1.3,1.3-2.5,1.3c-1.5,0-2.9-1.1-2.9-2.9c0-1.8,1.4-3,2.9-3c1.2,0,1.9,0.6,2.4,1.3v-1.1h0.9v5.2
		C86.3,97.6,85,98.6,83.1,98.6z M83.1,91.1c-1.2,0-2.2,0.8-2.2,2.1c0,1.3,1,2.1,2.2,2.1c1.2,0,2.3-0.8,2.3-2.1
		C85.4,92,84.3,91.1,83.1,91.1z"/>
	<path class="st0" d="M90.5,96c0.9,0,1.5-0.3,2-0.9l0.6,0.5c-0.6,0.7-1.4,1.2-2.6,1.2c-1.7,0-3.1-1.3-3.1-3.3c0-1.8,1.3-3.3,3-3.3
		c1.8,0,2.9,1.5,2.9,3.3c0,0.1,0,0.2,0,0.3h-4.9C88.4,95.3,89.4,96,90.5,96z M92.3,93.2c-0.1-1.1-0.7-2.1-2-2.1
		c-1.1,0-1.9,0.9-2,2.1H92.3z"/>
	<path class="st0" d="M95.2,96.7h-0.9v-6.2h0.9v1.1c0.4-0.7,1.1-1.2,2.1-1.2c1.5,0,2.4,1,2.4,2.5v3.9h-0.9V93c0-1.2-0.6-1.9-1.7-1.9
		c-1.1,0-1.9,0.8-1.9,2V96.7z"/>
	<path class="st0" d="M103.9,96.8c-1.8,0-3.2-1.5-3.2-3.2c0-1.8,1.4-3.3,3.2-3.3c1.2,0,1.9,0.5,2.5,1.1l-0.6,0.7
		c-0.5-0.5-1.1-0.9-1.9-0.9c-1.3,0-2.2,1.1-2.2,2.4c0,1.4,1,2.4,2.3,2.4c0.8,0,1.4-0.4,1.9-0.9l0.6,0.6
		C105.8,96.3,105.1,96.8,103.9,96.8z"/>
	<path class="st0" d="M110,96c0.9,0,1.5-0.3,2-0.9l0.6,0.5c-0.6,0.7-1.4,1.2-2.6,1.2c-1.7,0-3.1-1.3-3.1-3.3c0-1.8,1.3-3.3,3-3.3
		c1.8,0,2.9,1.5,2.9,3.3c0,0.1,0,0.2,0,0.3h-4.9C107.9,95.3,108.9,96,110,96z M111.8,93.2c-0.1-1.1-0.7-2.1-2-2.1
		c-1.1,0-1.9,0.9-2,2.1H111.8z"/>
</g>
<path class="st0" d="M81.5,43.9c-1.1-2.8-3.9-4.3-6.7-4.1L63.1,11.6c0.7-0.6,1.2-1.4,1.6-2.3c1.4-3.4-0.2-7.3-3.6-8.8
	c-3.4-1.4-7.3,0.2-8.8,3.6c-1.2,2.8-0.3,5.9,2,7.8L42.7,39.8c-2.9-0.3-5.7,1.3-6.8,4.1c-1.4,3.4,0.2,7.3,3.6,8.8s7.3-0.2,8.8-3.6
	c0.3-0.8,0.5-1.6,0.5-2.4h19.9c0,0.8,0.2,1.6,0.5,2.4c1.4,3.4,5.3,5,8.8,3.6C81.3,51.2,83,47.3,81.5,43.9z M77.1,50.7
	c-2.3,1-5-0.1-5.9-2.5c-0.9-2.2,0.1-4.7,2.2-5.8L60.3,10.9c-0.9,0.4-2,0.5-3.1,0.2l-13,31.4c2,1.1,3,3.6,2.1,5.7
	c-1,2.3-3.6,3.4-5.9,2.5c-2.3-1-3.4-3.6-2.5-5.9c1-2.3,3.6-3.4,5.9-2.5c0,0,0,0,0,0l13-31.4c0,0,0,0,0,0c-2.3-1-3.4-3.6-2.5-5.9
	c1-2.3,3.6-3.4,5.9-2.5c2.3,1,3.4,3.6,2.5,5.9c-0.4,1-1.2,1.8-2.1,2.3l13.1,31.5c2.3-0.9,4.9,0.2,5.8,2.5
	C80.5,47.1,79.4,49.7,77.1,50.7z"/>
</svg>
